<svg width="80" height="24" viewBox="0 0 80 24" fill="none" xmlns="http://www.w3.org/2000/svg">
<path d="M18 11C18 10.041 17.32 9.239 16.419 9.046C16.779 8.445 17 7.75 17 7C17 4.794 15.206 3 13 3C11.483 3 10.179 3.857 9.5 5.104C8.821 3.857 7.517 3 6 3C3.794 3 2 4.794 2 7C2 7.902 2.312 8.727 2.817 9.396C2.56459 9.58057 2.35912 9.82193 2.2172 10.1006C2.07528 10.3792 2.00087 10.6873 2 11V19C2 20.103 2.897 21 4 21H16C17.103 21 18 20.103 18 19V16.362L22 18.362V11.362L18 13.362V11ZM13 5C14.103 5 15 5.897 15 7C15 8.103 14.103 9 13 9C11.897 9 11 8.103 11 7C11 5.897 11.897 5 13 5ZM6 5C7.103 5 8 5.897 8 7C8 8.103 7.103 9 6 9C4.897 9 4 8.103 4 7C4 5.897 4.897 5 6 5ZM4 19V11H16L16.002 19H4Z" fill="#F7BC0D"/>
<path d="M37.2725 8.624V17H35.5925V11.552L33.3485 17H32.0765L29.8205 11.552V17H28.1405V8.624H30.0485L32.7125 14.852L35.3765 8.624H37.2725ZM41.8855 17.108C41.2455 17.108 40.6695 16.968 40.1575 16.688C39.6455 16.4 39.2415 15.996 38.9455 15.476C38.6575 14.956 38.5135 14.356 38.5135 13.676C38.5135 12.996 38.6615 12.396 38.9575 11.876C39.2615 11.356 39.6735 10.956 40.1935 10.676C40.7135 10.388 41.2935 10.244 41.9335 10.244C42.5735 10.244 43.1535 10.388 43.6735 10.676C44.1935 10.956 44.6015 11.356 44.8975 11.876C45.2015 12.396 45.3535 12.996 45.3535 13.676C45.3535 14.356 45.1975 14.956 44.8855 15.476C44.5815 15.996 44.1655 16.4 43.6375 16.688C43.1175 16.968 42.5335 17.108 41.8855 17.108ZM41.8855 15.644C42.1895 15.644 42.4735 15.572 42.7375 15.428C43.0095 15.276 43.2255 15.052 43.3855 14.756C43.5455 14.46 43.6255 14.1 43.6255 13.676C43.6255 13.044 43.4575 12.56 43.1215 12.224C42.7935 11.88 42.3895 11.708 41.9095 11.708C41.4295 11.708 41.0255 11.88 40.6975 12.224C40.3775 12.56 40.2175 13.044 40.2175 13.676C40.2175 14.308 40.3735 14.796 40.6855 15.14C41.0055 15.476 41.4055 15.644 41.8855 15.644ZM49.3578 15.452L51.0378 10.352H52.8258L50.3658 17H48.3258L45.8778 10.352H47.6778L49.3578 15.452ZM54.6214 9.56C54.3254 9.56 54.0774 9.468 53.8774 9.284C53.6854 9.092 53.5894 8.856 53.5894 8.576C53.5894 8.296 53.6854 8.064 53.8774 7.88C54.0774 7.688 54.3254 7.592 54.6214 7.592C54.9174 7.592 55.1614 7.688 55.3534 7.88C55.5534 8.064 55.6534 8.296 55.6534 8.576C55.6534 8.856 55.5534 9.092 55.3534 9.284C55.1614 9.468 54.9174 9.56 54.6214 9.56ZM55.4494 10.352V17H53.7694V10.352H55.4494ZM63.2893 13.532C63.2893 13.772 63.2733 13.988 63.2413 14.18H58.3813C58.4213 14.66 58.5893 15.036 58.8853 15.308C59.1813 15.58 59.5453 15.716 59.9773 15.716C60.6013 15.716 61.0453 15.448 61.3093 14.912H63.1213C62.9293 15.552 62.5613 16.08 62.0173 16.496C61.4733 16.904 60.8053 17.108 60.0133 17.108C59.3733 17.108 58.7973 16.968 58.2853 16.688C57.7813 16.4 57.3853 15.996 57.0973 15.476C56.8173 14.956 56.6772 14.356 56.6772 13.676C56.6772 12.988 56.8173 12.384 57.0973 11.864C57.3773 11.344 57.7693 10.944 58.2733 10.664C58.7773 10.384 59.3573 10.244 60.0133 10.244C60.6453 10.244 61.2093 10.38 61.7053 10.652C62.2093 10.924 62.5973 11.312 62.8693 11.816C63.1493 12.312 63.2893 12.884 63.2893 13.532ZM61.5493 13.052C61.5413 12.62 61.3853 12.276 61.0813 12.02C60.7773 11.756 60.4053 11.624 59.9653 11.624C59.5493 11.624 59.1973 11.752 58.9093 12.008C58.6293 12.256 58.4573 12.604 58.3933 13.052H61.5493ZM67.4435 8.624C68.3235 8.624 69.0955 8.796 69.7595 9.14C70.4315 9.484 70.9475 9.976 71.3075 10.616C71.6755 11.248 71.8595 11.984 71.8595 12.824C71.8595 13.664 71.6755 14.4 71.3075 15.032C70.9475 15.656 70.4315 16.14 69.7595 16.484C69.0955 16.828 68.3235 17 67.4435 17H64.5155V8.624H67.4435ZM67.3835 15.572C68.2635 15.572 68.9435 15.332 69.4235 14.852C69.9035 14.372 70.1435 13.696 70.1435 12.824C70.1435 11.952 69.9035 11.272 69.4235 10.784C68.9435 10.288 68.2635 10.04 67.3835 10.04H66.1955V15.572H67.3835ZM77.8691 12.704C78.3411 12.792 78.7291 13.028 79.0331 13.412C79.3371 13.796 79.4891 14.236 79.4891 14.732C79.4891 15.18 79.3771 15.576 79.1531 15.92C78.9371 16.256 78.6211 16.52 78.2051 16.712C77.7891 16.904 77.2971 17 76.7291 17H73.1171V8.624H76.5731C77.1411 8.624 77.6291 8.716 78.0371 8.9C78.4531 9.084 78.7651 9.34 78.9731 9.668C79.1891 9.996 79.2971 10.368 79.2971 10.784C79.2971 11.272 79.1651 11.68 78.9011 12.008C78.6451 12.336 78.3011 12.568 77.8691 12.704ZM74.7971 12.08H76.3331C76.7331 12.08 77.0411 11.992 77.2571 11.816C77.4731 11.632 77.5811 11.372 77.5811 11.036C77.5811 10.7 77.4731 10.44 77.2571 10.256C77.0411 10.072 76.7331 9.98 76.3331 9.98H74.7971V12.08ZM76.4891 15.632C76.8971 15.632 77.2131 15.536 77.4371 15.344C77.6691 15.152 77.7851 14.88 77.7851 14.528C77.7851 14.168 77.6651 13.888 77.4251 13.688C77.1851 13.48 76.8611 13.376 76.4531 13.376H74.7971V15.632H76.4891Z" fill="#F7BC0D"/>
</svg>
